<?xml version="1.0" encoding="UTF-8" standalone="no"?>
<svg
   xmlns:dc="http://purl.org/dc/elements/1.1/"
   xmlns:cc="http://creativecommons.org/ns#"
   xmlns:rdf="http://www.w3.org/1999/02/22-rdf-syntax-ns#"
   xmlns:svg="http://www.w3.org/2000/svg"
   xmlns="http://www.w3.org/2000/svg"
   viewBox="0 0 4583.7222 2890.0776"
   height="2890.0776"
   width="4583.7222"
   xml:space="preserve"
   id="svg2"
   version="1.1"><metadata
     id="metadata8"><rdf:RDF><cc:Work
         rdf:about=""><dc:format>image/svg+xml</dc:format><dc:type
           rdf:resource="http://purl.org/dc/dcmitype/StillImage" /></cc:Work></rdf:RDF></metadata><defs
     id="defs6" /><g
     transform="matrix(1.3333333,0,0,-1.3333333,-0.59843664,2891.3844)"
     id="g10"><g
       transform="scale(0.1)"
       id="g12"><g
         transform="scale(2.10935)"
         id="g14"><path
           id="path16"
           style="fill:#d81f2a;fill-opacity:1;fill-rule:nonzero;stroke:none"
           d="M 8145.34,4.64634 C 11167.7,16.0761 14144.4,198.539 14988.4,757.361 c 901,604.509 1300.2,1836.239 1311.6,4379.599 -11.4,2543.3 -410.6,3797.89 -1311.6,4390.95 -844,558.89 -3820.7,741.29 -6843.06,752.69 l -11.41,-0.1 C 5111.61,10269.2 2157.67,10086.8 1313.72,9527.91 412.71,8934.85 13.5353,7691.69 2.1278,5148.33 v -11.37 11.37 C 13.5353,2604.99 412.71,1361.87 1313.72,757.361 2157.71,209.928 5111.61,16.0761 8133.93,4.64634 Z" /></g><g
         transform="scale(1.97357)"
         id="g18"><path
           id="path20"
           style="fill:#f3e2a7;fill-opacity:1;fill-rule:nonzero;stroke:none"
           d="m 13301.3,4527.35 c 268.2,-12.17 512,-231.6 512,-499.77 0,-280.36 -231.6,-499.75 -512,-499.75 -280.4,0 -512,243.81 -512,499.75 0,280.39 219.5,487.6 512,499.77 z m -6363.06,-36.52 c 280.36,0 511.98,-219.44 511.98,-499.83 0,-272.48 -230.35,-475.9 -478.34,-475.9 -7.12,0 -14.29,0.17 -21.45,0.52 -7.11,-0.31 -14.21,-0.47 -21.3,-0.47 -259.64,0 -490.66,214.81 -490.66,475.85 0,280.41 219.4,499.83 499.77,499.83 z m 3169.36,621.65 -182.86,-0.11 c -0.16,0 -0.33,0 -0.48,0 -280.19,0 -560.34,-121.89 -694.33,-292.46 v 243.8 l -865.48,-0.07 v -609.43 l 219.4,-0.09 v -926.29 l -207.21,-0.11 v -609.39 l 1121.46,-0.11 v 609.61 l -219.4,-0.11 -12.21,414.55 c 12.19,280.37 219.44,499.79 633.88,499.79 l 207.23,-0.12 z m 1950.3,0 -182.8,-0.11 c -0.1,0 -0.3,0 -0.5,0 -280.2,0 -560.3,-121.89 -694.3,-292.46 v 243.8 l -877.7,-0.07 v -609.43 l 219.5,-0.09 v -926.29 l -207.3,-0.11 v -609.39 l 1121.5,-0.13 v 609.63 l -219.4,-0.11 v 414.55 c 0,280.37 219.4,499.77 633.8,499.77 l 207.2,-0.1 z m 3071.9,646.08 v -585.25 l 231.6,0.1 V 3527.72 l -329.1,0.11 v -609.61 l 1267.7,0.11 v 597.21 l -243.8,0.08 V 5758.45 Z M 13216,5149.06 c -633.9,0 -1145.9,-487.59 -1145.9,-1109.29 0,-621.65 560.8,-1133.65 1182.4,-1145.82 207.3,12.17 365.8,60.96 536.4,170.63 v -134.06 l 1048.3,-0.13 v 597.44 l -353.5,-0.04 v 938.62 l 231.6,-0.1 v 609.6 l -926.4,-0.12 v -121.75 c -146.3,109.67 -365.7,195.02 -572.9,195.02 z m -6265.57,-24.38 c -694.83,0 -1170.21,-487.58 -1170.21,-1121.45 0,-621.69 548.53,-1133.65 1170.21,-1133.65 621.69,0 1158.04,475.36 1145.84,1121.42 12.2,621.72 -524.15,1133.68 -1145.84,1133.68 z m -2511.08,0 c -621.67,0 -1109.27,-487.6 -1109.27,-1109.25 0,-621.72 548.54,-1145.85 1170.21,-1158.06 511.96,12.21 975.2,353.48 1109.25,828.89 l -706.98,-0.05 c -100.52,-111.59 -201.03,-172.11 -348.45,-172.11 -13.46,0 -27.33,0.49 -41.63,1.52 -7.43,-0.31 -14.84,-0.5 -22.22,-0.5 -270.9,0 -501.93,215.15 -501.93,488.11 0,280.37 219.41,487.6 499.77,487.6 170.66,0 329.14,-73.15 438.85,-219.44 l 597.31,-0.1 v 792.42 l -585.14,-0.07 v -109.6 c -121.88,85.31 -280.36,170.64 -499.77,170.64 z" /></g><g
         transform="scale(1.81417)"
         id="g22"><path
           id="path24"
           style="fill:#fec85a;fill-opacity:1;fill-rule:nonzero;stroke:none"
           d="m 12242.2,8041.45 c 265.2,0 437.6,-119.32 543.7,-331.5 h -1047.6 c 79.6,198.89 278.5,331.5 503.9,331.5 z m -6935.43,-39.8 c 291.76,0 543.71,-238.64 543.71,-543.64 0,-305.07 -251.95,-543.75 -543.71,-543.75 -304.99,0 -556.94,238.77 -556.94,543.75 0,305 251.95,543.64 556.94,543.64 z m 4031.29,26.56 c 291.76,0 556.99,-251.96 570.21,-556.94 -13.22,-318.33 -238.66,-557.01 -543.68,-557.01 -291.71,0 -556.96,278.52 -556.96,557.01 0,305 225.44,556.94 530.43,556.94 z m -6855.82,0 c 305,-13.21 556.94,-251.96 556.94,-556.96 0,-318.22 -251.94,-556.9 -556.94,-570.16 -305.02,13.19 -556.97,251.94 -556.97,570.18 0,305.02 251.95,543.73 556.97,556.94 z m 4216.94,1312.8 v -623.39 l 225.44,0.13 V 6927.42 l -225.44,0.15 v -649.9 l 1233.26,0.11 v 649.64 l -251.94,0.15 v 2413.34 z m 8553.22,-649.74 c -225.4,0 -424.3,-119.38 -557,-238.7 v 185.62 l -981.3,-0.13 v -662.9 l 225.5,-0.13 V 6927.57 l -225.4,-0.15 v -649.64 l 1233.2,-0.11 v 649.9 l -238.7,-0.15 v 676.42 c 0,159.17 92.8,371.32 305,371.32 172.4,0 278.5,-132.6 278.5,-318.24 V 6277.78 l 1007.8,-0.11 v 649.9 l -265.2,-0.15 v 954.94 c 13.3,450.85 -291.7,808.91 -782.4,808.91 z m -4601.5,649.77 -994.57,-0.13 v -609.89 l 225.44,-0.11 v -251.84 c -172.39,132.64 -424.36,212.2 -649.77,212.2 -663.05,0 -1206.74,-517.18 -1206.74,-1220 0,-649.79 610,-1206.73 1219.98,-1206.73 251.99,0 490.67,66.29 663.08,198.91 v -185.67 l 994.58,-0.11 v 636.61 l -252,-0.02 z M 5293.53,8691.27 c -676.31,0 -1259.79,-503.94 -1259.79,-1220.02 0,-716.07 583.48,-1233.24 1259.79,-1233.22 702.83,0 1259.77,517.15 1259.77,1233.24 0,676.28 -583.47,1220 -1259.77,1220 z m 6948.67,0 c -663,0 -1246.5,-543.71 -1246.5,-1220 -13.3,-716.06 583.5,-1259.81 1246.5,-1259.81 610,0 1034.4,305.02 1206.8,795.69 l -0.3,-0.06 -742.4,-0.05 c -92.8,-119.24 -291.7,-172.32 -464.1,-172.32 -225.4,0 -424.3,132.62 -503.9,331.55 l 0.2,-0.07 1763.5,-0.1 c 26.5,92.99 39.8,185.8 39.8,278.62 0,676.3 -610,1246.55 -1299.6,1246.55 z m -9852.78,0 c -676.32,0 -1220,-570.25 -1220,-1220 0,-676.34 570.21,-1233.24 1220,-1233.24 212.11,0 410.98,66.28 596.61,158.99 l 0.12,-0.06 c -0.04,-265.1 -212.19,-450.71 -477.4,-450.71 -159.12,0 -291.72,79.56 -384.57,185.63 l -13.23,13.28 -822.18,-0.13 v -13.15 c 119.33,-464.1 570.19,-808.87 1206.74,-808.87 676.29,0 1219.97,411.07 1233.26,1007.82 v 1591.3 l 251.94,-0.15 v 663.15 l -941.53,0.07 v -119.37 c -172.38,132.61 -411.06,225.44 -649.76,225.44 z" /></g><g
         transform="scale(2.10116)"
         id="g26"><path
           id="path28"
           style="fill:#d81f2a;fill-opacity:1;fill-rule:nonzero;stroke:none"
           d="m 16075.4,8974.64 16.9,-0.06 c 17.3,0.06 28.9,11.18 28.9,28.97 0,17.34 -5.3,28.9 -23.1,28.9 l -22.7,-0.05 z m 103.6,-57.84 v -46.25 l -46.2,-0.04 -52.1,75.2 -5.3,-0.04 v -28.87 l 11.6,-0.03 v -46.22 l -86.8,-0.04 v 46.29 l 22.7,-0.03 v 121.02 l -22.7,-0.05 v 46.3 l 97.9,-0.03 c 46.7,0.03 80.9,-28.87 80.9,-74.68 0,-34.69 -17.3,-57.84 -46.2,-63.62 l 23.1,-28.91 23.1,-0.03 z m -86.7,225.06 c -92.1,0 -167.3,-75.16 -167.3,-161.46 0,-97.84 75.2,-167.22 167.3,-167.22 92.5,0 167.2,69.38 167.2,167.22 0,86.3 -74.7,161.46 -167.2,161.46 z m 0,40.05 c 109.4,0 207.7,-92.08 207.7,-201.51 0,-115.19 -98.3,-207.25 -207.7,-207.25 -114.8,0 -207.7,92.06 -207.7,207.25 0,109.43 92.9,201.51 207.7,201.51 z" /></g></g></g></svg>